<?xml version="1.0" encoding="UTF-8"?>
<svg id="svgButton" width="103.3" height="36" version="1.1" viewBox="0 0 27.332 9.525" xmlns="http://www.w3.org/2000/svg">
 <title>graphic / web designer</title>
 <defs>
  <linearGradient id="linearGradient4165" x1="85.725" x2="86.012" y1="41.942" y2="59.14" gradientTransform="matrix(.41896 0 0 .38344 -23.276 -16.092)" gradientUnits="userSpaceOnUse">
   <stop style="stop-color:#fff" offset="0"/>
   <stop style="stop-color:#fff;stop-opacity:0" offset="1"/>
  </linearGradient>
  <filter id="filter8540" x="-.048291" y="-.32242" width="1.0966" height="1.6448" style="color-interpolation-filters:sRGB">
   <feGaussianBlur stdDeviation="1.0252497"/>
  </filter>
 </defs>
 <rect id="svgBase" x="2.2559" y=".9472" width="22.683" height="6.7815" ry="3.3907" style="color-rendering:auto;color:#000000;fill-rule:evenodd;fill:#00739e;image-rendering:auto;isolation:auto;mix-blend-mode:normal;shape-rendering:auto;solid-color:#000000;stroke-width:.30675;stroke:#000000"/>
 <rect id="svgBlur" transform="matrix(.39599 0 0 .28768 -2.3087 -.13062)" x="14.933" y="17.632" width="50.954" height="7.6317" ry="3.8158" style="color-rendering:auto;color:#000000;fill-rule:evenodd;fill:#5cc4f3;filter:url(#filter8540);image-rendering:auto;isolation:auto;mix-blend-mode:normal;shape-rendering:auto;solid-color:#000000"/>
 <path id="svgText" d="m7.5697 2.5972c-0.023286 0-0.037208 0.00927-0.037208 0.032557v0.11162c0 0.027944 0.00462 0.037208 0.027906 0.037208h0.2186c0.17232 0 0.20516 0.065303 0.20516 0.30283 0 0.074518 0.0093 0.70346 0.0093 0.99221v0.19999c0 0.12109-0.00929 1.025-0.013952 1.2439 0 0.11178-0.014306 0.22325-0.13074 0.22325h-0.2744c-0.01863 0-0.032557 0.00927-0.032557 0.027906v0.12144c0 0.023286 0.00927 0.032557 0.032557 0.032557 0.10712 0 0.24647-0.013952 0.647-0.013952 0.33533 0 0.49857 0.013952 0.58706 0.013952 0.02794 0 0.037208-0.00927 0.037208-0.032557v-0.11679c0-0.023286-0.00925-0.032557-0.037208-0.032557h-0.22841c-0.0978 0-0.14418-0.046356-0.14883-0.15813-0.00466-0.32601-0.0093-1.0431-0.0093-1.1689v-0.098187c0-0.032601 0.013883-0.04651 0.065114-0.04651h1.7048c0.07918 0 0.10232 0.00458 0.10232 0.055811v0.06563c0 0.16766-0.0093 0.91749-0.01395 1.1364 0 0.12575-0.0138 0.21394-0.12558 0.21394h-0.29353c-0.02794 0-0.037208 0.00927-0.037208 0.032557v0.11679c0 0.01863 0.00927 0.032557 0.027906 0.032557 0.13972 0 0.28885-0.013952 0.69403-0.013952 0.33999 0 0.49806 0.013952 0.58654 0.013952 0.02794 0 0.03721-0.00926 0.03721-0.037208v-0.11214c0-0.023286-0.0092-0.032557-0.04186-0.032557h-0.20464c-0.13972 0-0.18656-0.064882-0.18656-0.23255-0.0047-0.26547-0.01395-1.1507-0.01395-1.2997v-0.15813c0-0.17232 0.0093-0.95957 0.0093-1.0248 0-0.16766 0.01428-0.24702 0.14935-0.24702h0.20929c0.02794 0 0.03721-0.00462 0.03721-0.032557v-0.11162c0-0.027944-0.0046-0.037208-0.03721-0.037208-0.08849 0-0.27914 0.013953-0.59584 0.013953s-0.51715-0.013953-0.61496-0.013953c-0.023289 0-0.027906 0.00927-0.027906 0.027906v0.12093c0 0.023286 0.00926 0.032557 0.032557 0.032557h0.24237c0.13506 0 0.15348 0.088685 0.15348 0.23772 0 0.055888 0.01395 0.70348 0.01395 0.96895v0.04651c0 0.060545-0.02316 0.069765-0.09302 0.069765h-1.7234c-0.041916 0-0.055812-0.01392-0.055812-0.037208v-0.079067c0-0.26081 0.0093-0.87585 0.0093-0.94105 0-0.18629 0.023551-0.26562 0.1819-0.26562h0.2372c0.02794 0 0.037208-0.00926 0.037208-0.037208v-0.12093c0-0.018629-0.013909-0.023255-0.04651-0.023255-0.08849 0-0.25633 0.013953-0.61961 0.013953-0.40985 0-0.5585-0.013953-0.65165-0.013953zm4.9621 1.3131c-0.15369 0-0.38208 0.037472-0.62426 0.22376-0.27478 0.21424-0.4005 0.51232-0.4005 0.74984 0 0.33067 0.04209 0.50298 0.25632 0.75914 0.19561 0.23287 0.4839 0.32143 0.70746 0.32143 0.57285 0 1.0294-0.51712 1.0294-1.0248 0-0.30273-0.1072-0.5449-0.31678-0.75914-0.13972-0.13972-0.39549-0.27027-0.65165-0.27027zm2.5865 0c-0.27013 0-0.54501 0.16304-0.68473 0.35399h-0.01395l-0.0186-0.26976c0-0.032601-0.01391-0.06563-0.04186-0.06563-0.01863 0-0.05111 0.00979-0.08837 0.028423l-0.4098 0.20929c-0.0093 0.00466-0.02842 0.023236-0.02842 0.037208v0.037208c0 0.013973 0.0098 0.023236 0.03307 0.037208l0.09767 0.051677c0.11178 0.060545 0.13023 0.14406 0.13023 0.2372v0.82891c0 0.079175 4.9e-5 0.1632-0.0047 0.24237-0.0047 0.088489-0.02785 0.11627-0.06977 0.11627h-0.15813c-0.04657 0-0.05633 0.0046-0.05633 0.041859v0.084233c0 0.032601 0.0098 0.041859 0.03772 0.041859 0.03726 0 0.18622-0.013952 0.43306-0.013952 0.25615 0 0.38184 0.013952 0.42376 0.013952 0.0326 0 0.03721-0.018558 0.03721-0.051161v-0.074932c0-0.032601-0.0046-0.041859-0.04651-0.041859h-0.16795c-0.0652 0-0.09302-0.046408-0.09302-0.12093v-0.92193c0-0.13041 0.0092-0.21899 0.06511-0.31213 0.13041-0.20958 0.32592-0.27027 0.44701-0.27027 0.10246 0 0.23763 0.027829 0.29818 0.083717 0.07452 0.06986 0.14005 0.1587 0.14005 0.50334v0.95913c0 0.060545-0.02832 0.079067-0.10284 0.079067h-0.13488c-0.04192 0-0.04651 0.00925-0.04651 0.04651v0.074932c0 0.032601 0.0093 0.04651 0.03256 0.04651 0.02794 0 0.18621-0.013952 0.43771-0.013952 0.26081 0 0.38185 0.013952 0.41445 0.013952 0.02329 0 0.03256-0.013902 0.03256-0.051161v-0.074932c0-0.032601-0.0092-0.041859-0.05116-0.041859h-0.15813c-0.06986 0-0.09354-0.046425-0.09354-0.10697v-0.80565c0-0.20958-0.0043-0.3352 0.06563-0.47026 0.07452-0.13506 0.26543-0.24237 0.40515-0.24237s0.26086 0.032467 0.34469 0.09767c0.10712 0.083832 0.13488 0.2189 0.13488 0.37259v0.68938c0 0.10246-2e-6 0.27014-0.0093 0.37725-0.0047 0.065203-0.04179 0.088368-0.09302 0.088368h-0.11679c-0.05123 0-0.06046 0.00925-0.06046 0.041859v0.079583c0 0.032601 0.0092 0.04651 0.03721 0.04651 0.0326 0 0.2002-0.013952 0.43306-0.013952 0.22355 0 0.35446 0.013952 0.38706 0.013952 0.02329 0 0.03256-0.013909 0.03256-0.04651v-0.079583c0-0.032601-0.0097-0.041859-0.05168-0.041859h-0.12558c-0.05589 0-0.09767-0.02316-0.09767-0.093019v-1.0387c0-0.35862-0.11664-0.46082-0.22376-0.57259-0.11178-0.11178-0.25609-0.14005-0.4191-0.14005-0.27944 0-0.54501 0.177-0.68473 0.35864h-0.02326c-0.097743-0.2189-0.28384-0.35864-0.52602-0.35864zm3.4066 0c-0.23287 0-0.46585 0.042094-0.66612 0.24702-0.24684 0.24684-0.29353 0.5589-0.29353 0.74054 0 0.32601 0.04216 0.49837 0.20516 0.73589 0.17232 0.2515 0.46578 0.33074 0.73124 0.33074 0.4145 0 0.6567-0.32118 0.74054-0.50747 0.02329-0.051231 0.01397-0.065624 0-0.070281l-0.06046-0.032557c-0.01397-0.00466-0.03254 0.00463-0.04186 0.023255-0.07917 0.15369-0.2797 0.31678-0.5638 0.31678-0.37259 0-0.66147-0.34458-0.66147-0.801 0-0.10712 0.0047-0.18185 0.01395-0.22376h1.1503c0.07452 0 0.13074-0.00921 0.13074-0.074416 0-0.18164-0.14914-0.68473-0.68473-0.68473zm-6.0308 0.14005c0.23752 0 0.61496 0.32589 0.61496 0.84286 0 0.49834-0.22793 0.93123-0.58189 0.93123-0.2189 0-0.35436-0.08816-0.46148-0.24185-0.14904-0.21424-0.17674-0.39136-0.17674-0.65217 0-0.35396 0.06486-0.54495 0.2465-0.73124 0.11178-0.12109 0.23289-0.14883 0.35864-0.14883zm5.9424 0c0.30273 0 0.35864 0.30733 0.35864 0.41445 0 0.041916-0.0376 0.065114-0.12609 0.065114h-0.72193c0.08849-0.34464 0.28447-0.47957 0.48939-0.47957z" style="fill:#ffffff;stroke-width:.3493px"/>
 <rect id="svgGradient" x="3.4359" y="1.1062" width="20.346" height="3.8356" ry="1.9178" style="color-rendering:auto;color:#000000;fill-rule:evenodd;fill:url(#linearGradient4165);image-rendering:auto;isolation:auto;mix-blend-mode:normal;shape-rendering:auto;solid-color:#000000"/>
</svg>
