<?xml version="1.0" encoding="UTF-8" standalone="no"?>
<!-- Created with Inkscape (http://www.inkscape.org/) -->

<svg
   xmlns:dc="http://purl.org/dc/elements/1.1/"
   xmlns:cc="http://creativecommons.org/ns#"
   xmlns:rdf="http://www.w3.org/1999/02/22-rdf-syntax-ns#"
   xmlns:svg="http://www.w3.org/2000/svg"
   xmlns="http://www.w3.org/2000/svg"
   xmlns:sodipodi="http://sodipodi.sourceforge.net/DTD/sodipodi-0.dtd"
   xmlns:inkscape="http://www.inkscape.org/namespaces/inkscape"
   width="171.16661mm"
   height="37.505241mm"
   viewBox="0 0 171.16661 37.505241"
   version="1.1"
   id="svg8"
   inkscape:version="0.92.2 (5c3e80d, 2017-08-06)"
   sodipodi:docname="ornament.svg"
   inkscape:export-filename="C:\Users\zayno\Desktop\test_star.png"
   inkscape:export-xdpi="100"
   inkscape:export-ydpi="100">
  <title
     id="title4507">graphic / web designer</title>
  <defs
     id="defs2" />
  <sodipodi:namedview
     id="base"
     pagecolor="#cccccc"
     bordercolor="#cc0000"
     borderopacity="1"
     inkscape:pageopacity="0"
     inkscape:pageshadow="2"
     inkscape:zoom="0.42315516"
     inkscape:cx="328.19083"
     inkscape:cy="-404.96949"
     inkscape:document-units="mm"
     inkscape:current-layer="layer1"
     showgrid="true"
     showguides="false"
     inkscape:guide-bbox="true"
     inkscape:showpageshadow="false"
     inkscape:pagecheckerboard="false"
     fit-margin-top="5"
     fit-margin-left="5"
     fit-margin-bottom="5"
     fit-margin-right="5">
    <sodipodi:guide
       position="185.5833,-84.477578"
       orientation="1,0"
       id="guide4485"
       inkscape:locked="false"
       inkscape:label=""
       inkscape:color="rgb(0,0,255)" />
    <sodipodi:guide
       position="-14.4167,-95.736798"
       orientation="1,0"
       id="guide4487"
       inkscape:locked="false"
       inkscape:label=""
       inkscape:color="rgb(0,0,255)" />
    <sodipodi:guide
       position="3.1017421,-250.64818"
       orientation="0,1"
       id="guide4489"
       inkscape:locked="false"
       inkscape:label=""
       inkscape:color="rgb(0,0,255)" />
    <sodipodi:guide
       position="-7.8531762,36.351825"
       orientation="0,1"
       id="guide4491"
       inkscape:locked="false"
       inkscape:label=""
       inkscape:color="rgb(0,0,255)" />
    <sodipodi:guide
       position="20.5833,-40.201447"
       orientation="1,0"
       id="guide4493"
       inkscape:locked="false"
       inkscape:label=""
       inkscape:color="rgb(0,0,255)" />
    <sodipodi:guide
       position="60.583301,-99.844898"
       orientation="1,0"
       id="guide4495"
       inkscape:locked="false"
       inkscape:label=""
       inkscape:color="rgb(0,0,255)" />
    <sodipodi:guide
       position="100.5833,-157.66252"
       orientation="1,0"
       id="guide4497"
       inkscape:locked="false"
       inkscape:label=""
       inkscape:color="rgb(0,0,255)" />
    <sodipodi:guide
       position="140.5833,-137.5785"
       orientation="1,0"
       id="guide4499"
       inkscape:locked="false"
       inkscape:label=""
       inkscape:color="rgb(0,0,255)" />
    <sodipodi:guide
       position="-105.83883,-159.98818"
       orientation="0,1"
       id="guide4501"
       inkscape:locked="false"
       inkscape:label=""
       inkscape:color="rgb(0,0,255)" />
    <sodipodi:guide
       position="-70.539652,-64.318177"
       orientation="0,1"
       id="guide4503"
       inkscape:locked="false"
       inkscape:label=""
       inkscape:color="rgb(0,0,255)" />
  </sodipodi:namedview>
  <metadata
     id="metadata5">
    <rdf:RDF>
      <cc:Work
         rdf:about="">
        <dc:format>image/svg+xml</dc:format>
        <dc:type
           rdf:resource="http://purl.org/dc/dcmitype/StillImage" />
        <dc:title>graphic / web designer</dc:title>
        <dc:creator>
          <cc:Agent>
            <dc:title>zayno lane</dc:title>
          </cc:Agent>
        </dc:creator>
        <dc:rights>
          <cc:Agent>
            <dc:title> CC Atribution-ShareAlike</dc:title>
          </cc:Agent>
        </dc:rights>
        <dc:language>en-US</dc:language>
        <dc:subject>
          <rdf:Bag>
            <rdf:li>vector</rdf:li>
            <rdf:li>illustration</rdf:li>
          </rdf:Bag>
        </dc:subject>
        <cc:license
           rdf:resource="http://creativecommons.org/licenses/by-sa/4.0/" />
      </cc:Work>
      <cc:License
         rdf:about="http://creativecommons.org/licenses/by-sa/4.0/">
        <cc:permits
           rdf:resource="http://creativecommons.org/ns#Reproduction" />
        <cc:permits
           rdf:resource="http://creativecommons.org/ns#Distribution" />
        <cc:requires
           rdf:resource="http://creativecommons.org/ns#Notice" />
        <cc:requires
           rdf:resource="http://creativecommons.org/ns#Attribution" />
        <cc:permits
           rdf:resource="http://creativecommons.org/ns#DerivativeWorks" />
        <cc:requires
           rdf:resource="http://creativecommons.org/ns#ShareAlike" />
      </cc:License>
    </rdf:RDF>
  </metadata>
  <g
     inkscape:label="Layer 1"
     inkscape:groupmode="layer"
     id="layer1"
     transform="translate(-19.4167,-3.8465848)">
    <path
       d="M 97.901876,16.441006 C 90.425853,12.72962 82.948331,13.507263 75.208072,15.991903 c -0.05677,0.01804 -0.09341,0.05225 -0.14069,0.07786 -1.945118,0.421474 -3.992213,0.400376 -5.6138,-0.868569 -1.439752,-1.129793 -2.572549,-2.42938 -2.604199,-4.216752 0.221023,-0.489795 0.472215,-0.977579 0.780652,-1.4613457 0.314968,-0.4918037 -0.454121,-0.9439214 -0.783671,-0.4862787 -2.205329,3.0548094 -3.151772,6.5049724 -0.05582,9.3050884 0.244149,0.221036 0.510398,0.412936 0.77564,0.605336 -5.712759,2.414315 -12.078085,5.986548 -18.207807,6.806389 -4.40914,0.590264 -12.408109,0.488788 -16.879562,-2.652928 -0.412939,-0.492305 -0.78819,-1.029322 -1.126778,-1.607028 3.47929,1.71403 7.616675,-0.806277 6.779765,-5.709244 -1.277493,-7.4855658 -10.737806,-4.014807 -12.828097,1.245835 -4.708558,11.855537 10.459503,15.23085 18.919125,16.990592 7.597081,1.579399 12.826592,1.324204 20.26392,-0.906748 5.600737,-1.680872 11.459179,-3.099016 15.728178,-7.32431 1.308631,0.240627 2.638869,-0.02763 3.772178,-0.743482 1.907429,0.796229 4.070058,0.449606 5.259643,-0.976073 0.807784,-0.0402 1.642681,-0.07185 2.438408,-0.22003 0.172208,-0.03266 0.328544,-0.168278 0.377776,-0.337581 0.143729,-0.501351 0.364201,-0.972558 0.582736,-1.443765 1.912442,0.121571 3.50591,0.243139 4.978319,1.848661 0.56263,0.613876 0.997156,1.278991 1.341778,1.97877 -0.0628,-0.07033 -0.15018,-0.124077 -0.27027,-0.136134 -3.717401,-0.356672 -9.099109,2.941277 -6.328645,7.390621 3.050289,4.900958 7.974859,3.685263 11.301959,-0.355163 3.79477,-4.607082 -1.28,-14.127179 -5.767029,-16.354614 z M 66.204902,13.248552 c 0.541023,1.231769 1.597474,2.356037 2.557986,3.004574 1.923493,1.299085 3.962556,1.360875 5.962925,0.802257 0.12816,0.316987 0.434033,0.550581 0.860529,0.413439 1.464871,-0.471209 2.947306,-0.906247 4.442309,-1.26995 -0.348632,0.246655 -0.677176,0.510893 -0.976575,0.793216 -0.702788,0.660091 -1.802946,1.851172 -1.934561,2.982974 -0.125122,0.235602 -0.230573,0.483766 -0.290362,0.757547 -2.836291,-0.418961 -6.088009,-1.119745 -8.420947,-2.819205 -1.799434,-1.310138 -2.38517,-2.942785 -2.201304,-4.664852 z m -11.042233,12.44982 c -0.07025,0.0859 -0.140121,0.172304 -0.212992,0.2562 -0.35315,0.405902 -0.746001,0.798239 -1.010731,1.269949 -0.12702,0.227064 0.182841,0.445587 0.363688,0.267251 0.385807,-0.380783 0.733451,-0.801755 1.073026,-1.224233 0.161766,-0.200943 0.338588,-0.406404 0.456153,-0.636985 0.03114,-0.06079 0.04614,-0.117546 0.05829,-0.172303 0.728913,-0.242637 1.449283,-0.509888 2.16614,-0.788192 -0.542047,0.850483 -1.168472,1.660278 -1.575373,2.571546 -0.0843,0.189391 0.150753,0.39284 0.308437,0.226561 0.803759,-0.847469 1.437227,-1.948125 1.885842,-3.042753 0.680175,-0.274787 1.352319,-0.568162 2.018957,-0.871582 -0.458146,0.614377 -0.915799,1.228253 -1.387008,1.834593 -0.162335,0.209481 0.176386,0.391332 0.345613,0.253687 0.808297,-0.656575 1.376451,-1.588943 1.898905,-2.487652 0.374757,-0.178341 0.741976,-0.368225 1.110696,-0.555101 -0.330044,0.482259 -0.671138,0.956983 -0.891667,1.492492 -0.09247,0.225055 0.265736,0.402386 0.413433,0.229073 0.513909,-0.605336 0.958993,-1.35535 1.26443,-2.121437 0.29788,-0.156735 0.591773,-0.319497 0.885648,-0.481255 -0.583743,0.778647 -1.090115,1.625616 -1.394545,2.539897 -0.08848,0.266249 0.32955,0.419968 0.459152,0.184873 0.612868,-1.115726 1.132815,-2.242505 1.896379,-3.266803 0.677688,-0.391332 1.338269,-0.797736 1.989832,-1.212179 -0.582224,1.20163 -1.18556,2.383165 -1.825047,3.558169 -0.166322,0.304928 0.279805,0.531489 0.467677,0.260721 0.859542,-1.240309 1.57188,-2.639364 1.998869,-4.090662 0.01519,-0.04973 0.0076,-0.09395 -0.01139,-0.134121 0.09436,-0.0623 0.192903,-0.122065 0.287342,-0.184872 0.597812,0.36923 1.235286,0.677171 1.896399,0.938897 -0.134045,0.278304 -0.255199,0.562635 -0.368226,0.850485 -0.145627,0.370736 -0.335588,0.75353 -0.386813,1.149383 -0.02202,0.173822 0.23661,0.245652 0.341587,0.135128 0.471209,-0.496325 0.560123,-1.328725 0.77414,-1.999868 0.506372,0.184872 1.025807,0.342102 1.551754,0.48025 -0.125691,0.190392 -0.251173,0.38028 -0.346619,0.590264 -0.133096,0.293375 0.282824,0.528477 0.447609,0.249169 0.142209,-0.24113 0.293361,-0.468194 0.42397,-0.711835 0.428508,0.100477 0.859029,0.191899 1.291562,0.267754 -1.397051,0.249167 -2.711208,0.904236 -4.10524,1.796415 -4.658319,2.978955 -9.795385,4.489029 -15.28862,5.098385 -1.195604,0.132621 -2.449478,0.234095 -3.728964,0.295885 0.71887,-0.638491 1.334244,-1.454817 1.99435,-2.113903 0.825859,-0.204961 1.646212,-0.445086 2.462521,-0.701285 z m -2.954331,0.817329 c -0.369745,0.299904 -0.733945,0.605837 -1.092621,0.923325 -0.426001,0.377267 -0.903229,0.725399 -1.331244,1.108695 -0.791208,0.02411 -1.586936,0.03666 -2.387182,0.02109 0.153222,-0.146691 0.302418,-0.298397 0.453627,-0.448602 0.304431,-0.301915 0.616893,-0.596796 0.869073,-0.944926 1.167978,-0.162259 2.331932,-0.386812 3.488347,-0.65959 z m -4.050483,0.740469 c -0.171828,0.150203 -0.337581,0.307941 -0.506865,0.460658 -0.302419,0.273279 -0.621925,0.534001 -0.897705,0.835413 -0.972056,-0.03467 -1.943618,-0.101977 -2.901605,-0.215509 0.418464,-0.276798 0.836416,-0.555101 1.242824,-0.847471 1.020775,-0.02914 2.042576,-0.107996 3.063351,-0.233091 z m -6.880223,0.124077 c 0.880616,0.08842 1.766777,0.122578 2.654437,0.130115 -0.176385,0.09846 -0.356169,0.190893 -0.54406,0.272777 -0.0693,0.03013 -0.01709,0.143177 0.05126,0.116046 0.277792,-0.110521 0.543035,-0.243642 0.802752,-0.386812 0.05468,0 0.109933,-0.004 0.164804,-0.0046 -0.340088,0.245648 -0.670625,0.502854 -0.994138,0.7686 -1.975268,-0.262731 -3.889229,-0.711836 -5.633393,-1.426183 1.203635,0.245149 2.398726,0.419465 3.498391,0.529984 z m 19.094935,5.651976 C 53.525494,34.898465 46.707053,33.477309 39.93735,31.814519 33.596649,30.25622 20.332511,24.986533 27.124829,16.206404 c 10.412769,-13.4640678 11.859547,10.219371 3.099519,2.68156 -0.0095,-0.0085 -0.01918,-0.01006 -0.02715,-0.01804 -0.166322,-0.523447 -0.313962,-1.065989 -0.428508,-1.643194 -0.157209,-0.798741 -1.587933,-0.730923 -1.507555,0.125596 0.07737,0.829385 0.245147,1.602004 0.460155,2.342976 -0.07786,1.569854 0.570173,3.027684 1.836596,4.178574 0.05221,0.0131 0.104427,0.01861 0.159298,0.04572 0.12664,0.06681 0.258198,0.124077 0.386301,0.186866 3.103546,3.641056 8.252668,5.543469 13.250068,6.015681 5.740896,0.543044 11.950989,-0.02914 17.443217,-1.795411 4.6347,-1.489981 10.434872,-6.711942 15.15448,-5.934802 0.02658,0.004 0.04614,-0.0021 0.0693,-0.0015 0.107464,0.245149 0.244661,0.479748 0.396858,0.704803 0.05126,0.265744 0.118096,0.528474 0.223548,0.78166 0.137652,0.330549 0.344112,0.603831 0.594792,0.818836 0.0057,0.192403 0.101388,0.382795 0.336575,0.513405 0.311456,0.172816 0.631456,0.299403 0.953981,0.4054 -5.673076,3.84853 -12.593494,5.629372 -19.153737,7.417749 z m 42.816583,-3.986674 c -0.12398,-0.07033 -0.24916,-0.138147 -0.37375,-0.20898 -0.0372,0.166285 -0.0873,0.32854 -0.14772,0.488287 -0.31698,2.092804 -1.68589,3.965577 -3.822394,4.639736 -3.096526,0.978583 -5.006462,-1.342289 -5.232516,-4.23936 -0.05221,-0.679683 0.755533,-0.78568 1.143352,-0.391835 0.145628,-0.02411 0.3009,-0.015 0.441059,0.04471 0.180372,-0.253186 0.49984,-0.37576 0.833416,-0.127096 0.846953,0.632462 1.722063,1.030829 2.564004,0.756543 0.154175,-0.113027 0.312955,-0.241633 0.476225,-0.402385 0.48226,-0.476734 0.88766,-1.031332 1.265434,-1.606526 0.0763,-0.199435 0.12,-0.40992 0.17981,-0.616388 -0.43755,-1.835099 -1.360374,-3.494372 -2.850862,-4.794964 -1.106671,-0.966026 -2.955337,-1.809979 -4.559855,-1.64621 0.0412,-0.120071 0.09038,-0.236609 0.122084,-0.360189 0.103477,-0.397864 -0.465684,-0.55711 -0.623918,-0.1924 -0.117527,0.270767 -0.257705,0.527973 -0.405401,0.781159 -0.101009,0.04169 -0.209479,0.06731 -0.305931,0.120052 -0.238623,0.131615 -0.237617,0.387816 -0.109932,0.563639 -0.205473,0.332056 -0.398377,0.671145 -0.56918,1.023796 -0.437546,0.03015 -0.880123,0.02463 -1.317156,0.04973 0.114109,-0.326529 0.198922,-0.682195 0.234598,-1.070514 0.04519,-0.489793 -0.74902,-0.620406 -0.883142,-0.152709 -0.311455,1.079557 -0.971562,2.191265 -2.157103,2.438423 -0.679681,0.141165 -1.300087,0.0648 -1.911967,-0.09896 0.04272,-0.04621 0.0919,-0.0839 0.133096,-0.132621 0.363707,-0.424992 -0.374757,-0.959495 -0.75804,-0.613375 -0.152652,0.13714 -0.313981,0.259214 -0.478746,0.378274 -0.03911,-0.01614 -0.07841,-0.02863 -0.117147,-0.0442 -0.448596,-0.178341 -0.811809,0.193405 -0.84346,0.579715 -1.21066,0.519936 -2.585099,0.548067 -3.789247,-0.145684 -0.06531,-0.03767 -0.130058,-0.06028 -0.194403,-0.07737 -0.115059,-0.11354 -0.224061,-0.228069 -0.329038,-0.343109 0.04272,-0.136646 0.03114,-0.293876 -0.08848,-0.443577 -0.44459,-0.55711 -0.933893,-1.32169 -0.835922,-2.072207 0.06285,-0.04371 0.117147,-0.102983 0.150184,-0.180847 0.08449,-0.193405 0.137083,-0.390831 0.18379,-0.590264 0.361694,-0.517928 0.90021,-0.869071 1.451296,-1.192587 0.554104,-0.324018 0.221535,-1.068506 -0.286337,-1.071519 0.432515,-0.441068 0.900724,-0.851489 1.351332,-1.241817 0.774121,-0.557614 1.628118,-1.03284 2.54441,-1.288035 3.079927,-0.460155 6.194524,-0.466183 9.307601,0.428508 3.76614,1.082571 7.088202,2.693116 8.853486,6.448708 1.1559,2.050103 1.74215,4.251917 1.75622,6.604438 z M 67.604954,22.410466 c 0.280318,-0.815822 0.669637,-1.622099 1.093627,-2.372614 0.109552,-0.194411 0.429514,-0.06731 0.372744,0.149709 -0.217529,0.833906 -0.598799,1.64571 -0.964024,2.42486 -0.126071,0.267753 -0.600812,0.08489 -0.502347,-0.201947 z m 34.110286,5.847392 c 0.12455,-0.303421 0.65306,-0.298397 0.64,0.0829 -0.0663,1.928533 -3.6943,6.569774 -5.719294,4.211728 -0.207467,-0.24113 0.06171,-0.586748 0.347131,-0.42901 2.171169,1.203136 4.073083,-2.251546 4.732163,-3.865608 z m -2.084764,-6.353764 c 0.11448,0.276295 -0.30343,0.449606 -0.48526,0.26926 -1.427206,-1.4091 -2.623797,-2.781026 -4.667873,-3.304479 -1.753715,-0.449103 -3.600369,-0.535509 -5.38524,-0.1924 -3.555654,0.683703 -6.547674,2.313839 -9.09459,4.868305 -0.251686,0.252181 -0.756558,-0.07536 -0.529992,-0.389827 2.320882,-3.2236 6.786297,-5.146105 10.664458,-5.446513 3.429565,-0.265745 8.017558,0.623922 9.498497,4.195654 z M 88.179342,20.024795 c -0.385313,1.085584 -1.211173,1.942599 -2.145559,2.584607 -0.143728,0.09847 -0.315975,-0.113027 -0.190397,-0.235101 0.773627,-0.751521 1.319681,-1.634657 1.927536,-2.513776 0.129109,-0.187378 0.495816,-0.08189 0.40842,0.164272 z m 2.995532,-0.443076 c 0.144108,0.781662 -0.367732,1.504547 -0.936893,1.986305 -0.105565,0.08943 -0.316487,-0.02964 -0.21601,-0.158234 0.437033,-0.55711 0.596292,-1.154912 0.759558,-1.827562 0.04367,-0.181854 0.357669,-0.193405 0.393345,-5.02e-4 z m -9.628607,-1.978267 c 1.786865,-0.704803 3.642063,-1.255882 5.580137,-1.160437 0.238623,0.01158 0.234085,0.332559 0,0.351649 -1.908436,0.157246 -3.657138,0.595288 -5.471629,1.183543 -0.250679,0.08238 -0.347625,-0.280312 -0.108413,-0.374755 z m -9.32317,0.495823 c 0.60683,0.04673 1.214686,0.09444 1.824041,0.100477 0.472709,0.0046 0.951455,-0.03516 1.417139,0.05626 0.212992,0.04169 0.212992,0.369229 0,0.410925 -1.018269,0.199433 -2.289724,0.04773 -3.295443,-0.185366 -0.221536,-0.05174 -0.174297,-0.399873 0.0543,-0.382291 z m 1.123759,9.430678 c -2.774509,1.977765 -5.839854,2.761436 -9.062959,3.66316 -2.267624,0.634471 -4.477984,1.733118 -6.873692,1.266431 -0.318993,-0.0623 -0.245155,-0.5767 0.07728,-0.544047 2.554455,0.263735 5.024533,-0.99265 7.46296,-1.595474 2.903086,-0.717361 5.521354,-1.780339 8.158704,-3.177888 0.264236,-0.140159 0.481765,0.2135 0.237617,0.387818 z M 31.066802,13.783056 c 0.696257,-0.274286 1.275974,1.140342 1.408595,1.595976 0.284324,0.976071 0.181891,2.11792 -0.805771,2.635345 -0.254193,0.133133 -0.562649,-0.190895 -0.328051,-0.4054 0.616893,-0.565147 0.760071,-1.273464 0.51391,-2.066681 -0.109552,-0.352148 -0.365207,-1.161943 -0.78819,-1.287532 -0.259204,-0.07686 -0.226566,-0.382792 -4.93e-4,-0.471708 z m 1.407076,-0.242136 c -0.14164,-0.08489 -0.01329,-0.270264 0.126641,-0.206466 2.055126,0.93287 2.320368,4.580458 0.586248,5.936811 -0.196929,0.153716 -0.491297,-0.08992 -0.294387,-0.280817 1.377457,-1.332742 1.296081,-4.416688 -0.418464,-5.449528 z m 152.222092,3.488845 c -2.0898,-5.260644 -11.55062,-8.7314008 -12.8281,-1.245837 -0.83692,4.902967 3.30046,7.423274 6.77975,5.709246 -0.33859,0.577704 -0.71433,1.114721 -1.12678,1.607027 -4.47143,3.141717 -12.46991,3.243193 -16.87956,2.652927 -6.12972,-0.819338 -12.49503,-4.392074 -18.20779,-6.806383 0.26525,-0.191899 0.53148,-0.383799 0.77562,-0.605336 3.09651,-2.800118 2.14957,-6.250279 -0.0558,-9.3050884 -0.32903,-0.4576447 -1.09864,-0.0049 -0.78316,0.4862767 0.30795,0.4832627 0.55912,0.9715507 0.78066,1.4613457 -0.0317,1.78687 -1.16396,3.086961 -2.60471,4.216754 -1.6211,1.269446 -3.66869,1.290544 -5.61329,0.868567 -0.0477,-0.02561 -0.0843,-0.05977 -0.14107,-0.07786 -7.74026,-2.484639 -15.21729,-3.262281 -22.69331,0.449105 -4.48751,2.227433 -9.56229,11.74753 -5.76751,16.354109 3.32758,4.040427 8.25166,5.256123 11.30195,0.355165 2.77046,-4.449344 -2.61125,-7.747795 -6.32916,-7.390621 -0.11962,0.01196 -0.20697,0.06581 -0.26976,0.136134 0.34462,-0.699779 0.77915,-1.365397 1.34178,-1.97877 1.47241,-1.605521 3.06637,-1.72709 4.97832,-1.848661 0.21853,0.471209 0.43906,0.942416 0.58224,1.443764 0.0498,0.169304 0.20597,0.304929 0.37776,0.337582 0.79624,0.14819 1.63064,0.180334 2.43892,0.22003 1.18907,1.425679 3.3517,1.772805 5.25915,0.976073 1.1338,0.716356 2.46352,0.98411 3.77267,0.743482 4.269,4.225294 10.12744,5.643436 15.72818,7.32431 7.43732,2.230952 12.66733,2.486147 20.26392,0.906748 8.45962,-1.758738 23.62868,-5.134552 18.91911,-16.990089 z m -18.93773,10.483107 c 0.26023,0.142665 0.52496,0.276295 0.80277,0.386812 0.0684,0.02713 0.12057,-0.0859 0.0513,-0.116046 -0.18739,-0.08189 -0.36773,-0.17481 -0.54354,-0.272778 0.88714,-0.0076 1.77279,-0.0417 2.65392,-0.130115 1.09967,-0.110521 2.29476,-0.284835 3.49891,-0.52898 -1.74468,0.714347 -3.65815,1.163452 -5.63391,1.426183 -0.32351,-0.265746 -0.65405,-0.522951 -0.99416,-0.768602 0.0547,-5.03e-4 0.10956,0.0036 0.16481,0.0036 z m -0.85248,-0.02261 c 0.4069,0.291868 0.82436,0.570674 1.24332,0.84747 -0.95848,0.11354 -1.93004,0.180334 -2.9021,0.215509 -0.27529,-0.301412 -0.59477,-0.562132 -0.89719,-0.835413 -0.16936,-0.153222 -0.33508,-0.310454 -0.50689,-0.460658 1.01979,0.124077 2.04207,0.202951 3.06286,0.233092 z m -3.62549,-0.314976 c 0.25218,0.348131 0.56415,0.643011 0.86856,0.944926 0.15114,0.149709 0.30041,0.301412 0.45363,0.448602 -0.80074,0.01614 -1.59647,0.003 -2.38718,-0.02109 -0.42851,-0.382798 -0.90574,-0.730929 -1.33123,-1.108699 -0.35869,-0.317989 -0.72289,-0.62342 -1.09262,-0.923325 1.15642,0.272779 2.32087,0.497329 3.48884,0.65959 z m -16.73942,-3.653112 c -0.63949,-1.175006 -1.24332,-2.357042 -1.82554,-3.558169 0.65206,0.414441 1.31264,0.820845 1.99033,1.212179 0.76407,1.024298 1.284,2.151075 1.89586,3.266803 0.12968,0.235604 0.54758,0.08138 0.45916,-0.184873 -0.30392,-0.91378 -0.81079,-1.76125 -1.39404,-2.539897 0.29338,0.161766 0.58726,0.324518 0.88516,0.481253 0.30492,0.766089 0.75052,1.516604 1.26492,2.121439 0.14715,0.173309 0.50537,-0.004 0.41294,-0.229074 -0.22004,-0.535005 -0.56113,-1.009731 -0.89169,-1.492491 0.36874,0.186866 0.73646,0.376764 1.11072,0.555099 0.52243,0.898711 1.09061,1.831079 1.89888,2.487654 0.16936,0.13714 0.5079,-0.04471 0.34562,-0.253689 -0.47119,-0.60634 -0.92885,-1.220216 -1.38699,-1.834593 0.66612,0.30342 1.33827,0.596795 2.01896,0.871582 0.4491,1.094628 1.08257,2.195787 1.88633,3.042753 0.15664,0.166285 0.39234,-0.03718 0.30794,-0.226561 -0.4069,-0.910765 -1.03334,-1.721061 -1.57537,-2.571546 0.71686,0.278304 1.43723,0.545557 2.16614,0.788192 0.0114,0.05476 0.0277,0.111527 0.0583,0.172303 0.11696,0.230581 0.29488,0.436044 0.45613,0.636985 0.34009,0.42248 0.68722,0.843452 1.07303,1.224235 0.18075,0.178341 0.49181,-0.04069 0.3642,-0.267253 -0.26473,-0.471708 -0.65756,-0.864045 -1.01071,-1.269948 -0.0733,-0.08388 -0.14316,-0.169797 -0.21351,-0.256199 0.81633,0.256199 1.63716,0.496325 2.46405,0.701788 0.65959,0.659087 1.27548,1.475411 1.99433,2.113903 -1.27949,-0.06178 -2.53386,-0.163266 -3.72897,-0.295887 -5.49373,-0.609355 -10.6303,-2.119931 -15.28911,-5.098384 -1.39354,-0.891677 -2.70868,-1.547247 -4.10574,-1.796416 0.43254,-0.07585 0.86355,-0.16729 1.29155,-0.267752 0.13006,0.24364 0.28233,0.470704 0.42399,0.711833 0.16423,0.279308 0.58021,0.0442 0.44759,-0.249166 -0.0955,-0.209984 -0.22103,-0.399875 -0.34662,-0.590266 0.52596,-0.138147 1.04589,-0.295384 1.55226,-0.480249 0.21402,0.671144 0.30343,1.503544 0.77414,1.999868 0.105,0.111015 0.3642,0.03919 0.34159,-0.135127 -0.0513,-0.396357 -0.24113,-0.778648 -0.38679,-1.149385 -0.11297,-0.288351 -0.23411,-0.57218 -0.36773,-0.850483 0.66109,-0.261726 1.29858,-0.56967 1.89637,-0.9389 0.0944,0.06279 0.19241,0.122577 0.28685,0.184872 -0.0171,0.0402 -0.0251,0.0844 -0.0114,0.134122 0.42701,1.450796 1.13933,2.850352 1.99887,4.090664 0.1874,0.269763 0.63347,0.04371 0.46718,-0.261225 z m -10.12744,-6.053357 c 0.4265,0.13714 0.73245,-0.09645 0.86053,-0.413438 1.99987,0.55912 4.03943,0.497331 5.96294,-0.802257 0.9605,-0.648538 2.01695,-1.772805 2.55799,-3.004575 0.18379,1.722068 -0.40189,3.354714 -2.20182,4.665354 -2.33294,1.698959 -5.58367,2.400245 -8.42045,2.819207 -0.0598,-0.273783 -0.16537,-0.522448 -0.29036,-0.75755 -0.13158,-1.131801 -1.23126,-2.32288 -1.93456,-2.982972 -0.2999,-0.282322 -0.62844,-0.54656 -0.97658,-0.793217 1.49552,0.363202 2.97795,0.798239 4.44231,1.269448 z m -7.52675,6.740576 c -0.0321,-0.386812 -0.39536,-0.758053 -0.84396,-0.579716 -0.0387,0.01614 -0.0784,0.02814 -0.11715,0.0442 -0.16423,-0.119065 -0.32552,-0.241129 -0.47823,-0.378273 -0.38379,-0.346122 -1.12125,0.188385 -0.75855,0.613375 0.0412,0.04872 0.0904,0.0859 0.13366,0.132621 -0.61188,0.163759 -1.23228,0.240626 -1.91245,0.09896 -1.18505,-0.247158 -1.84565,-1.358866 -2.15661,-2.438424 -0.13462,-0.468194 -0.92885,-0.337078 -0.88364,0.152709 0.0357,0.38832 0.12,0.743482 0.2346,1.070515 -0.43705,-0.02512 -0.87963,-0.01959 -1.31717,-0.04973 -0.17088,-0.35215 -0.36371,-0.69174 -0.56917,-1.023796 0.12759,-0.175816 0.12854,-0.432023 -0.10993,-0.56364 -0.0959,-0.05274 -0.20496,-0.07836 -0.30593,-0.120052 -0.14809,-0.253186 -0.28734,-0.510391 -0.4054,-0.781159 -0.15816,-0.364709 -0.72741,-0.205463 -0.62392,0.192401 0.0311,0.123583 0.0809,0.240125 0.12152,0.360186 -1.60403,-0.163265 -3.45319,0.680187 -4.55936,1.646213 -1.49098,1.300592 -2.41381,2.959865 -2.85137,4.794962 0.0598,0.206467 0.10291,0.416952 0.17942,0.616389 0.37778,0.575193 0.78318,1.130294 1.26593,1.606525 0.16329,0.160759 0.32201,0.289859 0.47573,0.402385 0.84196,0.274285 1.71705,-0.124078 2.56402,-0.756543 0.33356,-0.248666 0.65307,-0.12609 0.8334,0.127096 0.14012,-0.05977 0.29539,-0.06883 0.44108,-0.04471 0.3878,-0.393844 1.19558,-0.287344 1.14335,0.391836 -0.22605,2.897073 -2.13601,5.217945 -5.23251,4.239359 -2.13652,-0.674158 -3.50542,-2.54693 -3.82242,-4.639733 -0.0602,-0.159753 -0.1105,-0.322009 -0.14771,-0.488287 -0.12455,0.07033 -0.24966,0.13864 -0.37324,0.208977 0.0133,-2.35252 0.5998,-4.554335 1.75622,-6.605444 1.76528,-3.755593 5.08734,-5.366137 8.85348,-6.448708 3.11308,-0.894691 6.22767,-0.888663 9.3076,-0.428508 0.91629,0.255197 1.77029,0.730421 2.54391,1.288034 0.45061,0.389827 0.91931,0.800249 1.35134,1.241818 -0.50839,0.0025 -0.84045,0.747501 -0.28636,1.071519 0.55109,0.323013 1.08962,0.674661 1.45131,1.192587 0.0467,0.198931 0.0995,0.396859 0.18379,0.590264 0.0332,0.07786 0.0873,0.13714 0.15019,0.180847 0.098,0.750517 -0.39084,1.5156 -0.83592,2.072209 -0.11905,0.149709 -0.13063,0.306937 -0.0885,0.443577 -0.105,0.11504 -0.214,0.230078 -0.32854,0.343107 -0.0647,0.01709 -0.12968,0.03968 -0.19441,0.07737 -1.20314,0.694755 -2.57807,0.666623 -3.78824,0.14669 z m 43.17574,7.604624 c -6.77021,1.66279 -13.58814,3.084448 -20.43522,1.217704 -6.56073,-1.788378 -13.48064,-3.56922 -19.15371,-7.417749 0.3225,-0.106002 0.6425,-0.232589 0.95345,-0.405399 0.2356,-0.130609 0.33156,-0.321004 0.33659,-0.513405 0.25117,-0.215008 0.45714,-0.488287 0.59477,-0.818836 0.10595,-0.253186 0.17278,-0.515917 0.22355,-0.781662 0.15265,-0.225054 0.28936,-0.459652 0.39737,-0.704801 0.0226,0 0.0427,0.0061 0.0693,0.0015 4.7201,-0.777142 10.51978,4.44482 15.15448,5.934802 5.49223,1.766775 11.70232,2.338453 17.44322,1.795409 4.99791,-0.472212 10.14652,-2.374623 13.25056,-6.01568 0.12759,-0.06279 0.25923,-0.119558 0.38581,-0.186866 0.0547,-0.02763 0.10708,-0.03266 0.1593,-0.04572 1.26644,-1.150893 1.91498,-2.608722 1.83661,-4.178576 0.215,-0.74097 0.38279,-1.513589 0.46016,-2.342974 0.0803,-0.856513 -1.35033,-0.924833 -1.50756,-0.125597 -0.11411,0.577204 -0.26173,1.119745 -0.42851,1.643198 -0.009,0.008 -0.0192,0.01006 -0.0272,0.01804 -8.76004,7.537307 -7.31376,-16.1461318 3.09952,-2.681562 6.79333,8.780632 -6.47132,14.050319 -12.81252,15.608117 z m -27.66709,-9.403551 c 0.0985,0.286843 -0.37628,0.469699 -0.50185,0.201945 -0.36572,-0.778647 -0.74701,-1.590952 -0.96452,-2.424858 -0.0568,-0.21752 0.26274,-0.344113 0.37274,-0.149709 0.42399,0.750012 0.81331,1.556791 1.09363,2.372614 z m -34.1103,5.847391 c 0.6591,1.61356 2.56101,5.068745 4.73218,3.865609 0.28533,-0.158234 0.5546,0.187378 0.34713,0.429009 -2.02499,2.358046 -5.65348,-2.283195 -5.7198,-4.211728 -0.0133,-0.381287 0.51592,-0.38631 0.64049,-0.0829 z m 22.24773,-5.102905 c 0.22655,0.314473 -0.2783,0.64251 -0.52999,0.389827 -2.54693,-2.553965 -5.53945,-4.184602 -9.0946,-4.868305 -1.78535,-0.343108 -3.63151,-0.256702 -5.38522,0.1924 -2.04357,0.523453 -3.24069,1.895379 -4.66787,3.30448 -0.1819,0.179841 -0.59981,0.007 -0.48526,-0.26926 1.48042,-3.571733 6.06841,-4.4614 9.49849,-4.195655 3.87865,0.300408 8.34408,2.222913 10.66445,5.446513 z m -6.37588,-0.780656 c 0.1255,0.122065 -0.0473,0.333562 -0.19038,0.235102 -0.93488,-0.642009 -1.76125,-1.49852 -2.14555,-2.584607 -0.0879,-0.246154 0.27881,-0.351649 0.4079,-0.164272 0.60835,0.879116 1.15391,1.762254 1.92803,2.513777 z m -4.17856,-0.965021 c 0.10101,0.128596 -0.1105,0.247661 -0.21601,0.158234 -0.56916,-0.481756 -1.08106,-1.204643 -0.9369,-1.986306 0.0351,-0.192903 0.34915,-0.181359 0.39335,0 0.16271,0.673154 0.32251,1.270954 0.75956,1.828064 z m 2.89556,-4.965761 c 1.93758,-0.09545 3.79327,0.455131 5.57964,1.160435 0.23961,0.09444 0.14221,0.45664 -0.10803,0.375258 -1.81451,-0.588757 -3.5637,-1.026308 -5.47216,-1.183544 -0.23359,-0.02009 -0.23811,-0.340596 5.2e-4,-0.352149 z m 11.66163,1.811988 c 0.46569,-0.09142 0.94392,-0.05174 1.41663,-0.05626 0.60936,-0.0055 1.21721,-0.05326 1.82404,-0.100477 0.22858,-0.01766 0.27629,0.330549 0.0543,0.382291 -1.0057,0.233093 -2.27666,0.385304 -3.29542,0.185366 -0.21201,-0.0412 -0.21201,-0.36923 4.9e-4,-0.410924 z m 18.05457,14.203537 c -2.39622,0.466686 -4.60658,-0.631961 -6.87421,-1.266434 -3.22308,-0.901724 -6.28845,-1.684892 -9.06294,-3.66316 -0.24414,-0.173822 -0.0266,-0.527472 0.2376,-0.387315 2.63787,1.397549 5.25613,2.460025 8.15924,3.177888 2.43841,0.602824 4.90797,1.85921 7.46245,1.595475 0.3225,-0.03315 0.39685,0.481756 0.0778,0.543546 z m 26.34291,-18.20478 c -0.42298,0.125596 -0.67919,0.935381 -0.7877,1.287531 -0.24616,0.793215 -0.1029,1.502036 0.5134,2.066681 0.2346,0.214505 -0.0739,0.538522 -0.32803,0.405398 -0.98812,-0.517422 -1.09061,-1.659271 -0.80577,-2.635345 0.13309,-0.455634 0.71234,-1.870261 1.40859,-1.595976 0.22556,0.08943 0.25871,0.395352 -4.9e-4,0.471711 z m -1.82556,4.736688 c 0.19742,0.190391 -0.097,0.434033 -0.29437,0.280815 -1.73362,-1.356855 -1.46889,-5.003939 0.58674,-5.936811 0.14013,-0.06379 0.26775,0.121571 0.12664,0.206468 -1.71503,1.032336 -1.79592,4.116283 -0.41895,5.449528 z"
       id="path5018"
       inkscape:connector-curvature="0"
       style="stroke-width:0.26458332" />
  </g>
</svg>
